<svg width="17" height="17" viewBox="0 0 17 17" fill="none" xmlns="http://www.w3.org/2000/svg">
    <path d="M15.7024 12.5522L16.147 13.4479C16.2698 13.6952 16.1688 13.9953 15.9214 14.118L13.8756 15.1457C13.3741 15.3947 12.7645 15.183 12.526 14.6753L10.5642 10.5H6.19922C5.70156 10.5 5.27966 10.1341 5.20925 9.64141C4.15025 2.22837 4.21109 2.68887 4.19922 2.5C4.19922 1.36381 5.14666 0.448905 6.29459 0.502217C7.33431 0.550499 8.17109 1.4055 8.1985 2.446C8.22563 3.47516 7.475 4.33422 6.492 4.47847L6.63794 5.50003H10.6992C10.9754 5.50003 11.1992 5.72387 11.1992 6.00003V7.00003C11.1992 7.27619 10.9754 7.50003 10.6992 7.50003H6.92366L7.06653 8.50003H11.1992C11.3891 8.50003 11.575 8.55408 11.7353 8.65586C11.8956 8.75764 12.0235 8.90294 12.1043 9.07478L13.9016 12.9L15.0322 12.3266C15.2795 12.2038 15.5796 12.3048 15.7024 12.5522ZM9.92916 11.5H9.16334C8.91997 13.1939 7.45934 14.5 5.69922 14.5C3.76931 14.5 2.19922 12.9299 2.19922 11C2.19922 9.70297 2.90841 8.56847 3.95934 7.96387C3.84334 7.15247 3.74547 6.46825 3.66284 5.89097C1.63534 6.702 0.199219 8.68634 0.199219 11C0.199219 14.0327 2.6665 16.5 5.69922 16.5C7.94516 16.5 9.88066 15.1466 10.7339 13.2128L9.92916 11.5Z" fill="white"/>
</svg>
