<svg width="34" height="33" viewBox="0 0 34 33" fill="none" xmlns="http://www.w3.org/2000/svg">
    <path d="M3.7688 8.29831L0.488559 8.29831L3.7688 16.4989L0.488559 24.7018L3.7688 24.7018L7.0502 19.7803L14.7358 19.7803L9.98711 32.9036L13.0934 32.9036L23.4549 19.7815L30.0165 19.7803C30.4521 19.7879 30.8848 19.7086 31.2894 19.5472C31.694 19.3857 32.0624 19.1453 32.3731 18.84C32.6838 18.5346 32.9306 18.1705 33.0991 17.7687C33.2675 17.367 33.3543 16.9357 33.3543 16.5001C33.3543 16.0644 33.2675 15.6332 33.0991 15.2314C32.9306 14.8297 32.6838 14.4655 32.3731 14.1602C32.0624 13.8548 31.694 13.6144 31.2894 13.453C30.8848 13.2915 30.4521 13.2123 30.0165 13.2198L23.2821 13.2198L12.9217 0.0965433L9.98595 0.0977036L14.5955 13.221L7.04904 13.221L3.7688 8.29831Z" fill="#7C7E7F"/>
</svg>
