<svg width="12" height="17" viewBox="0 0 12 17" fill="none" xmlns="http://www.w3.org/2000/svg">
    <path d="M3.56079 16.5C3.23346 16.5 2.95061 16.2713 2.88202 15.9513L0.650631 5.5381C0.617603 5.38397 0.638015 5.22319 0.708508 5.0822L2.80774 0.883733C2.92533 0.648556 3.1657 0.5 3.42864 0.5H8.97058C9.23352 0.5 9.47389 0.648556 9.59148 0.883733L11.6907 5.0822C11.7612 5.22319 11.7816 5.38397 11.7486 5.5381L9.51719 15.9513C9.44861 16.2713 9.16576 16.5 8.83842 16.5H3.56079ZM5.39961 3.7V5.3H3.79961V6.9H5.39961V10.9H6.99961V6.9H8.59961V5.3H6.99961V3.7H5.39961Z" fill="white"/>
</svg>
