<svg width="16" height="15" viewBox="0 0 16 15" fill="none" xmlns="http://www.w3.org/2000/svg">
    <path d="M3.95208 1.61829L11.0353 4.65258L8.19922 5.86758L1.15672 2.84936C1.31529 2.68758 1.50922 2.55686 1.72993 2.47222L3.95208 1.61829ZM5.38565 1.0665L7.04636 0.427933C7.7888 0.142512 8.6107 0.142512 9.35315 0.427933L14.6696 2.47222C14.8892 2.55793 15.0831 2.6865 15.2417 2.84936L12.396 4.06865L5.38565 1.0665ZM15.6928 3.82222L8.73493 6.804V14.7861C8.94493 14.7508 9.15279 14.694 9.35315 14.6169L14.6696 12.5715C14.9727 12.4548 15.2333 12.249 15.4171 11.9812C15.6009 11.7135 15.6993 11.3963 15.6992 11.0715V3.97222C15.6992 3.92186 15.6971 3.8715 15.6917 3.82222H15.6928ZM7.6635 14.7861V6.804L0.706719 3.82222C0.70189 3.87208 0.699388 3.92213 0.699219 3.97222V11.0715C0.699262 11.3964 0.797782 11.7137 0.981788 11.9815C1.16579 12.2492 1.42664 12.455 1.72993 12.5715L7.04529 14.6169C7.24672 14.694 7.4535 14.7508 7.6635 14.7861Z" fill="white"/>
</svg>
