<svg width="16" height="17" viewBox="0 0 16 17" fill="none" xmlns="http://www.w3.org/2000/svg">
    <path d="M10.2548 6.72217C11.6992 6.72217 12.5881 4.61106 12.5881 3.27772C12.5881 2.16661 12.0326 0.833279 10.9214 0.833279C9.477 0.833279 8.58811 2.94439 8.58811 4.27772C8.58811 5.38883 9.14366 6.72217 10.2548 6.72217ZM6.03255 6.72217C7.14366 6.72217 7.69922 5.38883 7.69922 4.27772C7.69922 2.83328 6.81033 0.722168 5.36589 0.722168C4.25477 0.722168 3.69922 2.0555 3.69922 3.16661C3.58811 4.61106 4.477 6.72217 6.03255 6.72217ZM14.2548 5.61106C12.8103 5.61106 11.8103 7.61106 11.8103 9.0555C11.8103 10.0555 12.2548 11.0555 13.2548 11.0555C14.6992 11.0555 15.6992 9.0555 15.6992 7.61106C15.6992 6.61106 15.1437 5.61106 14.2548 5.61106ZM4.58811 9.0555C4.58811 7.61106 3.477 5.61106 2.14366 5.61106C1.14366 5.61106 0.699219 6.61106 0.699219 7.61106C0.699219 9.0555 1.81033 11.0555 3.14366 11.0555C4.14366 11.0555 4.58811 10.0555 4.58811 9.0555ZM8.14366 8.83328C5.92144 8.83328 2.92144 12.3888 2.92144 14.8333C2.92144 15.9444 3.69922 16.2777 4.58811 16.2777C5.92144 16.2777 6.92144 15.3888 8.14366 15.3888C9.25477 15.3888 10.2548 16.2777 11.477 16.2777C12.3659 16.2777 13.3659 16.0555 13.3659 14.8333C13.3659 12.3888 10.3659 8.83328 8.14366 8.83328Z" fill="white"/>
</svg>
